<svg xmlns="http://www.w3.org/2000/svg" fill="none" viewBox="0 0 128 50">
	<path d="M0.284843 19V17.416C0.652843 17.4 0.956843 17.352 1.19684 17.272C1.45284 17.192 1.64484 17.008 1.77284 16.72C1.91684 16.432 1.98884 15.968 1.98884 15.328V6.136C1.98884 5.704 1.99684 5.288 2.01284 4.888C2.04484 4.488 2.06884 4.184 2.08484 3.976C1.82884 3.992 1.50884 4.008 1.12484 4.024C0.740843 4.024 0.460843 4.032 0.284843 4.048V2.2H7.17284V3.784C6.82084 3.8 6.51684 3.848 6.26084 3.928C6.00484 4.008 5.80484 4.192 5.66084 4.48C5.53284 4.752 5.46884 5.216 5.46884 5.872V15.064C5.46884 15.496 5.46084 15.904 5.44484 16.288C5.42884 16.672 5.40484 16.968 5.37284 17.176H8.58884C9.53284 17.16 10.2688 16.832 10.7968 16.192C11.3408 15.536 11.6128 14.552 11.6128 13.24H13.2208L13.0768 19H0.284843ZM13.8092 17.44C14.2572 17.44 14.5772 17.352 14.7692 17.176C14.9772 17 15.1052 16.752 15.1532 16.432C15.2012 16.096 15.2252 15.72 15.2252 15.304V5.44C15.2252 5.152 15.2332 4.824 15.2492 4.456C15.2652 4.072 15.2892 3.704 15.3212 3.352C15.0652 3.368 14.7612 3.384 14.4092 3.4C14.0732 3.4 13.8172 3.408 13.6412 3.424V1.6C14.3932 1.6 15.0172 1.56 15.5132 1.48C16.0252 1.4 16.4252 1.304 16.7132 1.192C17.0172 1.08 17.2252 0.975999 17.3372 0.879999H18.6332V15.136C18.6332 15.36 18.6252 15.68 18.6092 16.096C18.5932 16.496 18.5692 16.88 18.5372 17.248C18.8092 17.216 19.0972 17.2 19.4012 17.2C19.7052 17.184 19.9372 17.176 20.0972 17.176V19H13.8092V17.44ZM27.9818 19C27.9498 18.776 27.9258 18.592 27.9098 18.448C27.9098 18.288 27.9018 18.104 27.8858 17.896C27.3418 18.44 26.7658 18.824 26.1578 19.048C25.5498 19.272 24.9338 19.384 24.3098 19.384C23.2858 19.384 22.4858 19.08 21.9098 18.472C21.3338 17.864 21.0458 17.104 21.0458 16.192C21.0458 15.424 21.2378 14.768 21.6218 14.224C22.0218 13.68 22.5418 13.24 23.1818 12.904C23.8378 12.552 24.5578 12.288 25.3418 12.112C26.1418 11.92 26.9418 11.808 27.7418 11.776V10.528C27.7418 10.112 27.6858 9.736 27.5738 9.4C27.4778 9.064 27.3018 8.8 27.0458 8.608C26.8058 8.416 26.4618 8.328 26.0138 8.344C25.7098 8.36 25.4138 8.424 25.1258 8.536C24.8378 8.648 24.5898 8.808 24.3818 9.016C24.5098 9.16 24.5898 9.32 24.6218 9.496C24.6538 9.656 24.6698 9.8 24.6698 9.928C24.6698 10.248 24.5418 10.584 24.2858 10.936C24.0298 11.272 23.6218 11.432 23.0618 11.416C22.5818 11.4 22.2138 11.232 21.9578 10.912C21.7018 10.592 21.5738 10.216 21.5738 9.784C21.5738 9.144 21.7978 8.592 22.2458 8.128C22.7098 7.648 23.3258 7.28 24.0938 7.024C24.8618 6.752 25.7098 6.616 26.6378 6.616C28.0458 6.616 29.1338 6.984 29.9018 7.72C30.6858 8.44 31.0778 9.6 31.0778 11.2C31.0778 11.744 31.0778 12.208 31.0778 12.592C31.0778 12.976 31.0698 13.36 31.0538 13.744C31.0538 14.128 31.0538 14.592 31.0538 15.136C31.0538 15.36 31.0458 15.68 31.0298 16.096C31.0138 16.496 30.9898 16.88 30.9578 17.248C31.2298 17.216 31.5178 17.2 31.8218 17.2C32.1258 17.184 32.3578 17.176 32.5178 17.176V19H27.9818ZM27.7178 13.48C27.2698 13.528 26.8458 13.608 26.4458 13.72C26.0458 13.832 25.6938 13.984 25.3898 14.176C25.1018 14.368 24.8698 14.6 24.6938 14.872C24.5338 15.144 24.4538 15.448 24.4538 15.784C24.4698 16.232 24.6138 16.552 24.8858 16.744C25.1578 16.936 25.4698 17.032 25.8218 17.032C26.1898 17.032 26.5338 16.952 26.8538 16.792C27.1738 16.632 27.4618 16.424 27.7178 16.168C27.7178 16.008 27.7178 15.856 27.7178 15.712C27.7178 15.552 27.7178 15.392 27.7178 15.232C27.7178 14.944 27.7178 14.656 27.7178 14.368C27.7178 14.064 27.7178 13.768 27.7178 13.48ZM33.5357 19V17.44C33.9837 17.44 34.3037 17.352 34.4957 17.176C34.6877 17 34.8077 16.752 34.8557 16.432C34.9197 16.096 34.9517 15.72 34.9517 15.304V11.272C34.9517 10.984 34.9597 10.664 34.9757 10.312C34.9917 9.944 35.0157 9.584 35.0477 9.232C34.7917 9.248 34.4877 9.264 34.1357 9.28C33.7997 9.28 33.5437 9.288 33.3677 9.304V7.48C34.1037 7.48 34.7277 7.44 35.2397 7.36C35.7517 7.28 36.1517 7.184 36.4397 7.072C36.7437 6.96 36.9517 6.856 37.0637 6.76H38.2397C38.2717 6.968 38.2877 7.12 38.2877 7.216C38.2877 7.312 38.2877 7.408 38.2877 7.504C38.3037 7.584 38.3357 7.736 38.3837 7.96C38.7037 7.704 39.0717 7.48 39.4877 7.288C39.9037 7.08 40.3197 6.92 40.7357 6.808C41.1517 6.68 41.5197 6.616 41.8397 6.616C43.3117 6.616 44.3517 7.04 44.9597 7.888C45.5837 8.72 45.8957 10.064 45.8957 11.92V15.136C45.8957 15.36 45.8877 15.68 45.8717 16.096C45.8557 16.496 45.8317 16.88 45.7997 17.248C46.0717 17.216 46.3597 17.2 46.6637 17.2C46.9677 17.184 47.1997 17.176 47.3597 17.176V19H41.0717V17.44C41.5197 17.44 41.8397 17.352 42.0317 17.176C42.2397 17 42.3677 16.752 42.4157 16.432C42.4797 16.096 42.5117 15.72 42.5117 15.304L42.4877 11.896C42.4877 10.856 42.3357 10.088 42.0317 9.592C41.7437 9.08 41.2477 8.824 40.5437 8.824C40.1437 8.824 39.7437 8.912 39.3437 9.088C38.9597 9.264 38.6317 9.472 38.3597 9.712C38.3597 9.936 38.3597 10.168 38.3597 10.408C38.3597 10.632 38.3597 10.856 38.3597 11.08V15.136C38.3597 15.36 38.3517 15.68 38.3357 16.096C38.3197 16.496 38.2957 16.88 38.2637 17.248C38.5197 17.216 38.7997 17.2 39.1037 17.2C39.4237 17.184 39.6637 17.176 39.8237 17.176V19H33.5357ZM48.9615 5.44C48.9615 5.152 48.9615 4.824 48.9615 4.456C48.9775 4.072 49.0015 3.704 49.0335 3.352C48.7775 3.368 48.4735 3.384 48.1215 3.4C47.7855 3.4 47.5295 3.408 47.3535 3.424V1.6C48.1055 1.6 48.7295 1.56 49.2255 1.48C49.7375 1.4 50.1375 1.304 50.4255 1.192C50.7295 1.08 50.9375 0.975999 51.0495 0.879999H52.3455V7.912C52.8895 7.432 53.4415 7.096 54.0015 6.904C54.5615 6.712 55.0895 6.616 55.5855 6.616C56.5455 6.616 57.3855 6.864 58.1055 7.36C58.8415 7.856 59.4095 8.56 59.8095 9.472C60.2255 10.384 60.4335 11.456 60.4335 12.688C60.4335 13.968 60.1935 15.12 59.7135 16.144C59.2495 17.152 58.5855 17.944 57.7215 18.52C56.8575 19.096 55.8175 19.384 54.6015 19.384C54.1695 19.384 53.6175 19.288 52.9455 19.096C52.2895 18.92 51.6815 18.536 51.1215 17.944L50.4015 19H48.9615V5.44ZM52.3455 15.4C52.3455 15.944 52.4335 16.376 52.6095 16.696C52.7855 17.016 53.0095 17.248 53.2815 17.392C53.5535 17.536 53.8255 17.616 54.0975 17.632C54.8175 17.648 55.3775 17.44 55.7775 17.008C56.1935 16.576 56.4815 16.008 56.6415 15.304C56.8175 14.584 56.9055 13.832 56.9055 13.048C56.9055 12.312 56.8175 11.616 56.6415 10.96C56.4655 10.304 56.1855 9.776 55.8015 9.376C55.4175 8.96 54.9135 8.76 54.2895 8.776C53.8895 8.792 53.5215 8.896 53.1855 9.088C52.8495 9.264 52.5695 9.504 52.3455 9.808V15.4ZM67.5193 19.384C66.3513 19.384 65.3193 19.128 64.4233 18.616C63.5273 18.088 62.8313 17.352 62.3353 16.408C61.8393 15.448 61.5913 14.32 61.5913 13.024C61.5913 11.904 61.8393 10.856 62.3353 9.88C62.8313 8.904 63.5273 8.12 64.4233 7.528C65.3353 6.92 66.3913 6.616 67.5913 6.616C68.2633 6.616 68.9193 6.712 69.5593 6.904C70.1993 7.08 70.7753 7.392 71.2873 7.84C71.8153 8.288 72.2313 8.896 72.5353 9.664C72.8553 10.432 73.0073 11.392 72.9913 12.544L65.1193 12.688C65.1193 13.552 65.2233 14.328 65.4313 15.016C65.6553 15.704 66.0153 16.248 66.5113 16.648C67.0073 17.048 67.6713 17.248 68.5033 17.248C68.8233 17.248 69.1833 17.192 69.5833 17.08C69.9993 16.968 70.4153 16.784 70.8313 16.528C71.2633 16.256 71.6633 15.896 72.0313 15.448L73.1113 16.456C72.5353 17.272 71.9193 17.896 71.2633 18.328C70.6073 18.744 69.9513 19.024 69.2953 19.168C68.6553 19.312 68.0633 19.384 67.5193 19.384ZM65.2633 11.008H69.6793C69.6633 10.336 69.5673 9.808 69.3913 9.424C69.2313 9.024 69.0073 8.736 68.7193 8.56C68.4313 8.384 68.0953 8.296 67.7113 8.296C67.0073 8.296 66.4553 8.552 66.0553 9.064C65.6553 9.56 65.3913 10.208 65.2633 11.008ZM79.0174 19.384C78.0574 19.384 77.2094 19.136 76.4734 18.64C75.7534 18.144 75.1854 17.44 74.7694 16.528C74.3694 15.616 74.1694 14.544 74.1694 13.312C74.1694 12.016 74.4174 10.864 74.9134 9.856C75.4094 8.848 76.1054 8.056 77.0014 7.48C77.8974 6.904 78.9374 6.616 80.1214 6.616C80.5534 6.616 80.9374 6.664 81.2734 6.76C81.6254 6.84 81.9534 6.936 82.2574 7.048V5.464C82.2574 5.24 82.2654 4.92 82.2814 4.504C82.2974 4.088 82.3214 3.704 82.3534 3.352C82.0974 3.368 81.7934 3.384 81.4414 3.4C81.0894 3.416 80.8254 3.424 80.6494 3.424V1.6C81.4014 1.6 82.0254 1.56 82.5214 1.48C83.0334 1.4 83.4334 1.304 83.7214 1.192C84.0254 1.08 84.2334 0.975999 84.3454 0.879999H85.6414V15.136C85.6414 15.36 85.6334 15.68 85.6174 16.096C85.6014 16.496 85.5774 16.88 85.5454 17.248C85.8174 17.216 86.1054 17.2 86.4094 17.2C86.7134 17.184 86.9454 17.176 87.1054 17.176V19H82.5454C82.5294 18.824 82.5054 18.64 82.4734 18.448C82.4574 18.256 82.4334 18.072 82.4014 17.896C81.8734 18.44 81.3294 18.824 80.7694 19.048C80.2094 19.272 79.6254 19.384 79.0174 19.384ZM80.2654 17.2C80.6814 17.2 81.0654 17.096 81.4174 16.888C81.7694 16.664 82.0494 16.384 82.2574 16.048C82.2574 15.808 82.2574 15.568 82.2574 15.328C82.2574 15.088 82.2574 14.848 82.2574 14.608V8.848C82.0974 8.72 81.8574 8.616 81.5374 8.536C81.2174 8.44 80.8894 8.392 80.5534 8.392C79.8174 8.408 79.2414 8.64 78.8254 9.088C78.4094 9.536 78.1134 10.104 77.9374 10.792C77.7774 11.48 77.6974 12.2 77.6974 12.952C77.6974 13.624 77.7774 14.288 77.9374 14.944C78.1134 15.6 78.3854 16.144 78.7534 16.576C79.1374 16.992 79.6414 17.2 80.2654 17.2ZM88.3223 17.44C88.7703 17.44 89.0903 17.352 89.2823 17.176C89.4743 17 89.5943 16.752 89.6423 16.432C89.7063 16.096 89.7383 15.72 89.7383 15.304V11.272C89.7383 10.984 89.7463 10.664 89.7623 10.312C89.7783 9.944 89.8023 9.584 89.8343 9.232C89.5783 9.248 89.2743 9.264 88.9223 9.28C88.5863 9.28 88.3303 9.288 88.1543 9.304V7.48H89.1143C89.7383 7.48 90.3063 7.4 90.8183 7.24C91.3463 7.08 91.6903 6.92 91.8503 6.76H93.0263C93.0583 6.92 93.0823 7.224 93.0983 7.672C93.1143 8.104 93.1223 8.488 93.1223 8.824C93.5543 8.296 93.9623 7.872 94.3463 7.552C94.7303 7.232 95.1063 7 95.4743 6.856C95.8583 6.696 96.2423 6.616 96.6263 6.616C97.1863 6.616 97.6743 6.776 98.0903 7.096C98.5063 7.4 98.7143 7.904 98.7143 8.608C98.7143 8.848 98.6583 9.104 98.5463 9.376C98.4343 9.632 98.2583 9.848 98.0183 10.024C97.7783 10.2 97.4503 10.288 97.0343 10.288C96.7143 10.288 96.3863 10.192 96.0503 10C95.7143 9.808 95.5223 9.44 95.4743 8.896C95.1543 8.896 94.8343 9.032 94.5143 9.304C94.1943 9.56 93.9063 9.872 93.6503 10.24C93.4103 10.592 93.2423 10.92 93.1463 11.224V15.136C93.1463 15.36 93.1383 15.68 93.1223 16.096C93.1063 16.496 93.0823 16.88 93.0503 17.248C93.3063 17.216 93.5863 17.2 93.8903 17.2C94.2103 17.184 94.4503 17.176 94.6103 17.176V19H88.3223V17.44ZM105.186 19.384C104.034 19.384 102.994 19.136 102.066 18.64C101.138 18.144 100.402 17.44 99.858 16.528C99.33 15.6 99.066 14.512 99.066 13.264C99.066 11.936 99.338 10.776 99.882 9.784C100.442 8.776 101.178 8 102.09 7.456C103.018 6.896 104.026 6.616 105.114 6.616C106.266 6.616 107.298 6.864 108.21 7.36C109.122 7.856 109.842 8.568 110.37 9.496C110.898 10.408 111.162 11.504 111.162 12.784C111.162 14.128 110.906 15.296 110.394 16.288C109.882 17.28 109.178 18.048 108.282 18.592C107.386 19.12 106.354 19.384 105.186 19.384ZM105.282 17.68C105.922 17.664 106.402 17.44 106.722 17.008C107.058 16.576 107.29 16.032 107.418 15.376C107.546 14.72 107.61 14.056 107.61 13.384C107.61 12.792 107.562 12.192 107.466 11.584C107.386 10.976 107.25 10.424 107.058 9.928C106.866 9.432 106.602 9.032 106.266 8.728C105.946 8.424 105.546 8.28 105.066 8.296C104.442 8.312 103.946 8.536 103.578 8.968C103.226 9.4 102.97 9.944 102.81 10.6C102.666 11.24 102.594 11.912 102.594 12.616C102.594 13.432 102.682 14.232 102.858 15.016C103.034 15.8 103.314 16.448 103.698 16.96C104.098 17.456 104.626 17.696 105.282 17.68ZM117.7 25.504C116.324 25.504 115.236 25.352 114.436 25.048C113.636 24.76 113.068 24.376 112.732 23.896C112.396 23.416 112.228 22.904 112.228 22.36C112.228 22.024 112.3 21.688 112.444 21.352C112.588 21.016 112.82 20.688 113.14 20.368C113.476 20.064 113.932 19.808 114.508 19.6C113.852 19.424 113.388 19.144 113.116 18.76C112.86 18.36 112.732 17.936 112.732 17.488C112.732 17.072 112.9 16.608 113.236 16.096C113.572 15.568 114.18 15.168 115.06 14.896C114.388 14.624 113.836 14.2 113.404 13.624C112.972 13.048 112.74 12.352 112.708 11.536C112.676 10.576 112.916 9.728 113.428 8.992C113.94 8.24 114.612 7.656 115.444 7.24C116.276 6.824 117.148 6.616 118.06 6.616C118.476 6.616 118.956 6.672 119.5 6.784C120.044 6.896 120.516 7.088 120.916 7.36C121.092 6.864 121.316 6.4 121.588 5.968C121.876 5.52 122.22 5.16 122.62 4.888C123.02 4.6 123.468 4.456 123.964 4.456C124.508 4.456 124.916 4.6 125.188 4.888C125.476 5.16 125.62 5.528 125.62 5.992C125.62 6.184 125.572 6.4 125.476 6.64C125.396 6.864 125.244 7.056 125.02 7.216C124.812 7.376 124.516 7.456 124.132 7.456C123.892 7.456 123.652 7.368 123.412 7.192C123.172 7 123.028 6.776 122.98 6.52C122.772 6.584 122.564 6.792 122.356 7.144C122.148 7.496 122.028 7.808 121.996 8.08C122.46 8.48 122.812 8.944 123.052 9.472C123.292 10 123.412 10.568 123.412 11.176C123.412 12.104 123.148 12.928 122.62 13.648C122.108 14.352 121.436 14.912 120.604 15.328C119.788 15.728 118.908 15.928 117.964 15.928C117.756 15.928 117.524 15.92 117.268 15.904C117.012 15.872 116.764 15.856 116.524 15.856C116.172 15.856 115.876 15.92 115.636 16.048C115.396 16.176 115.276 16.352 115.276 16.576C115.276 16.88 115.508 17.088 115.972 17.2C116.436 17.312 117.228 17.4 118.348 17.464C119.58 17.528 120.652 17.688 121.564 17.944C122.492 18.184 123.212 18.568 123.724 19.096C124.236 19.624 124.492 20.352 124.492 21.28C124.492 21.968 124.292 22.568 123.892 23.08C123.492 23.608 122.956 24.048 122.284 24.4C121.628 24.768 120.9 25.04 120.1 25.216C119.3 25.408 118.5 25.504 117.7 25.504ZM118.396 23.848C119.532 23.848 120.388 23.64 120.964 23.224C121.556 22.808 121.852 22.376 121.852 21.928C121.852 21.592 121.724 21.312 121.468 21.088C121.212 20.88 120.828 20.712 120.316 20.584C119.82 20.456 119.18 20.376 118.396 20.344C118.044 20.312 117.636 20.288 117.172 20.272C116.708 20.256 116.3 20.216 115.948 20.152C115.708 20.344 115.524 20.584 115.396 20.872C115.268 21.16 115.196 21.44 115.18 21.712C115.148 22.352 115.42 22.864 115.996 23.248C116.588 23.648 117.388 23.848 118.396 23.848ZM118.06 14.32C118.492 14.32 118.852 14.184 119.14 13.912C119.444 13.64 119.668 13.296 119.812 12.88C119.972 12.464 120.052 12.04 120.052 11.608C120.052 11.048 119.98 10.512 119.836 10C119.692 9.472 119.468 9.048 119.164 8.728C118.876 8.392 118.5 8.224 118.036 8.224C117.396 8.224 116.9 8.512 116.548 9.088C116.196 9.664 116.02 10.32 116.02 11.056C116.02 11.616 116.1 12.152 116.26 12.664C116.42 13.16 116.652 13.56 116.956 13.864C117.26 14.168 117.628 14.32 118.06 14.32ZM14.96 43V41.416C15.328 41.4 15.632 41.352 15.872 41.272C16.128 41.192 16.32 41.008 16.448 40.72C16.592 40.432 16.664 39.968 16.664 39.328V30.136C16.664 29.704 16.672 29.288 16.688 28.888C16.72 28.488 16.744 28.184 16.76 27.976C16.504 27.992 16.184 28.008 15.8 28.024C15.416 28.024 15.136 28.032 14.96 28.048V26.2H21.848V27.784C21.496 27.8 21.192 27.848 20.936 27.928C20.68 28.008 20.48 28.192 20.336 28.48C20.208 28.752 20.144 29.216 20.144 29.872V33.616H26.744V30.136C26.744 29.704 26.752 29.288 26.768 28.888C26.784 28.488 26.808 28.184 26.84 27.976C26.584 27.992 26.264 28.008 25.88 28.024C25.496 28.024 25.216 28.032 25.04 28.048V26.2H31.928V27.784C31.576 27.8 31.272 27.848 31.016 27.928C30.76 28.008 30.56 28.192 30.416 28.48C30.288 28.752 30.224 29.216 30.224 29.872V39.064C30.224 39.496 30.216 39.912 30.2 40.312C30.184 40.712 30.16 41.016 30.128 41.224C30.384 41.192 30.704 41.176 31.088 41.176C31.488 41.16 31.768 41.152 31.928 41.152V43H25.04V41.416C25.408 41.4 25.712 41.352 25.952 41.272C26.208 41.192 26.4 41.008 26.528 40.72C26.672 40.432 26.744 39.968 26.744 39.328V35.44L20.144 35.512V39.064C20.144 39.496 20.136 39.912 20.12 40.312C20.104 40.712 20.08 41.016 20.048 41.224C20.304 41.192 20.624 41.176 21.008 41.176C21.408 41.16 21.688 41.152 21.848 41.152V43H14.96ZM38.9906 43.384C37.8386 43.384 36.7986 43.136 35.8706 42.64C34.9426 42.144 34.2066 41.44 33.6626 40.528C33.1346 39.6 32.8706 38.512 32.8706 37.264C32.8706 35.936 33.1426 34.776 33.6866 33.784C34.2466 32.776 34.9826 32 35.8946 31.456C36.8226 30.896 37.8306 30.616 38.9186 30.616C40.0706 30.616 41.1026 30.864 42.0146 31.36C42.9266 31.856 43.6466 32.568 44.1746 33.496C44.7026 34.408 44.9666 35.504 44.9666 36.784C44.9666 38.128 44.7106 39.296 44.1986 40.288C43.6866 41.28 42.9826 42.048 42.0866 42.592C41.1906 43.12 40.1586 43.384 38.9906 43.384ZM39.0866 41.68C39.7266 41.664 40.2066 41.44 40.5266 41.008C40.8626 40.576 41.0946 40.032 41.2226 39.376C41.3506 38.72 41.4146 38.056 41.4146 37.384C41.4146 36.792 41.3666 36.192 41.2706 35.584C41.1906 34.976 41.0546 34.424 40.8626 33.928C40.6706 33.432 40.4066 33.032 40.0706 32.728C39.7506 32.424 39.3506 32.28 38.8706 32.296C38.2466 32.312 37.7506 32.536 37.3826 32.968C37.0306 33.4 36.7746 33.944 36.6146 34.6C36.4706 35.24 36.3986 35.912 36.3986 36.616C36.3986 37.432 36.4866 38.232 36.6626 39.016C36.8386 39.8 37.1186 40.448 37.5026 40.96C37.9026 41.456 38.4306 41.696 39.0866 41.68ZM45.8666 41.44C46.3146 41.44 46.6346 41.352 46.8266 41.176C47.0346 41 47.1626 40.752 47.2106 40.432C47.2586 40.096 47.2826 39.72 47.2826 39.304V29.44C47.2826 29.152 47.2906 28.824 47.3066 28.456C47.3226 28.072 47.3466 27.704 47.3786 27.352C47.1226 27.368 46.8186 27.384 46.4666 27.4C46.1306 27.4 45.8746 27.408 45.6986 27.424V25.6C46.4506 25.6 47.0746 25.56 47.5706 25.48C48.0826 25.4 48.4826 25.304 48.7706 25.192C49.0746 25.08 49.2826 24.976 49.3946 24.88H50.6906V39.136C50.6906 39.36 50.6826 39.68 50.6666 40.096C50.6506 40.496 50.6266 40.88 50.5946 41.248C50.8666 41.216 51.1546 41.2 51.4586 41.2C51.7626 41.184 51.9946 41.176 52.1546 41.176V43H45.8666V41.44ZM53.3671 41.44C53.8151 41.44 54.1351 41.352 54.3271 41.176C54.5191 41 54.6391 40.752 54.6871 40.432C54.7511 40.096 54.7831 39.72 54.7831 39.304V35.32C54.7831 35.032 54.7911 34.704 54.8071 34.336C54.8231 33.952 54.8471 33.584 54.8791 33.232C54.6231 33.248 54.3191 33.264 53.9671 33.28C53.6311 33.28 53.3751 33.288 53.1991 33.304V31.48C53.9351 31.48 54.5591 31.44 55.0711 31.36C55.5831 31.28 55.9831 31.184 56.2711 31.072C56.5751 30.96 56.7831 30.856 56.8951 30.76H58.1911V39.136C58.1911 39.36 58.1831 39.68 58.1671 40.096C58.1511 40.496 58.1271 40.88 58.0951 41.248C58.3511 41.216 58.6311 41.2 58.9351 41.2C59.2551 41.184 59.4951 41.176 59.6551 41.176V43H53.3671V41.44ZM56.3671 28.864C55.8231 28.864 55.3751 28.672 55.0231 28.288C54.6711 27.904 54.4951 27.44 54.4951 26.896C54.4951 26.352 54.6791 25.888 55.0471 25.504C55.4151 25.12 55.8471 24.928 56.3431 24.928C56.8551 24.928 57.2791 25.12 57.6151 25.504C57.9671 25.888 58.1431 26.352 58.1431 26.896C58.1431 27.44 57.9831 27.904 57.6631 28.288C57.3431 28.672 56.9111 28.864 56.3671 28.864ZM65.4907 43.384C64.5307 43.384 63.6827 43.136 62.9467 42.64C62.2267 42.144 61.6587 41.44 61.2427 40.528C60.8427 39.616 60.6427 38.544 60.6427 37.312C60.6427 36.016 60.8907 34.864 61.3867 33.856C61.8827 32.848 62.5787 32.056 63.4747 31.48C64.3707 30.904 65.4107 30.616 66.5947 30.616C67.0267 30.616 67.4107 30.664 67.7467 30.76C68.0987 30.84 68.4267 30.936 68.7307 31.048V29.464C68.7307 29.24 68.7387 28.92 68.7547 28.504C68.7707 28.088 68.7947 27.704 68.8267 27.352C68.5707 27.368 68.2667 27.384 67.9147 27.4C67.5627 27.416 67.2987 27.424 67.1227 27.424V25.6C67.8747 25.6 68.4987 25.56 68.9947 25.48C69.5067 25.4 69.9067 25.304 70.1947 25.192C70.4987 25.08 70.7067 24.976 70.8187 24.88H72.1147V39.136C72.1147 39.36 72.1067 39.68 72.0907 40.096C72.0747 40.496 72.0507 40.88 72.0187 41.248C72.2907 41.216 72.5787 41.2 72.8827 41.2C73.1867 41.184 73.4187 41.176 73.5787 41.176V43H69.0187C69.0027 42.824 68.9787 42.64 68.9467 42.448C68.9307 42.256 68.9067 42.072 68.8747 41.896C68.3467 42.44 67.8027 42.824 67.2427 43.048C66.6827 43.272 66.0987 43.384 65.4907 43.384ZM66.7387 41.2C67.1547 41.2 67.5387 41.096 67.8907 40.888C68.2427 40.664 68.5227 40.384 68.7307 40.048C68.7307 39.808 68.7307 39.568 68.7307 39.328C68.7307 39.088 68.7307 38.848 68.7307 38.608V32.848C68.5707 32.72 68.3307 32.616 68.0107 32.536C67.6907 32.44 67.3627 32.392 67.0267 32.392C66.2907 32.408 65.7147 32.64 65.2987 33.088C64.8827 33.536 64.5867 34.104 64.4107 34.792C64.2507 35.48 64.1707 36.2 64.1707 36.952C64.1707 37.624 64.2507 38.288 64.4107 38.944C64.5867 39.6 64.8587 40.144 65.2267 40.576C65.6107 40.992 66.1147 41.2 66.7387 41.2ZM81.4676 43C81.4356 42.776 81.4116 42.592 81.3956 42.448C81.3956 42.288 81.3876 42.104 81.3716 41.896C80.8276 42.44 80.2516 42.824 79.6436 43.048C79.0356 43.272 78.4196 43.384 77.7956 43.384C76.7716 43.384 75.9716 43.08 75.3956 42.472C74.8196 41.864 74.5316 41.104 74.5316 40.192C74.5316 39.424 74.7236 38.768 75.1076 38.224C75.5076 37.68 76.0276 37.24 76.6676 36.904C77.3236 36.552 78.0436 36.288 78.8276 36.112C79.6276 35.92 80.4276 35.808 81.2276 35.776V34.528C81.2276 34.112 81.1716 33.736 81.0596 33.4C80.9636 33.064 80.7876 32.8 80.5316 32.608C80.2916 32.416 79.9476 32.328 79.4996 32.344C79.1956 32.36 78.8996 32.424 78.6116 32.536C78.3236 32.648 78.0756 32.808 77.8676 33.016C77.9956 33.16 78.0756 33.32 78.1076 33.496C78.1396 33.656 78.1556 33.8 78.1556 33.928C78.1556 34.248 78.0276 34.584 77.7716 34.936C77.5156 35.272 77.1076 35.432 76.5476 35.416C76.0676 35.4 75.6996 35.232 75.4436 34.912C75.1876 34.592 75.0596 34.216 75.0596 33.784C75.0596 33.144 75.2836 32.592 75.7316 32.128C76.1956 31.648 76.8116 31.28 77.5796 31.024C78.3476 30.752 79.1956 30.616 80.1236 30.616C81.5316 30.616 82.6196 30.984 83.3876 31.72C84.1716 32.44 84.5636 33.6 84.5636 35.2C84.5636 35.744 84.5636 36.208 84.5636 36.592C84.5636 36.976 84.5556 37.36 84.5396 37.744C84.5396 38.128 84.5396 38.592 84.5396 39.136C84.5396 39.36 84.5316 39.68 84.5156 40.096C84.4996 40.496 84.4756 40.88 84.4436 41.248C84.7156 41.216 85.0036 41.2 85.3076 41.2C85.6116 41.184 85.8436 41.176 86.0036 41.176V43H81.4676ZM81.2036 37.48C80.7556 37.528 80.3316 37.608 79.9316 37.72C79.5316 37.832 79.1796 37.984 78.8756 38.176C78.5876 38.368 78.3556 38.6 78.1796 38.872C78.0196 39.144 77.9396 39.448 77.9396 39.784C77.9556 40.232 78.0996 40.552 78.3716 40.744C78.6436 40.936 78.9556 41.032 79.3076 41.032C79.6756 41.032 80.0196 40.952 80.3396 40.792C80.6596 40.632 80.9476 40.424 81.2036 40.168C81.2036 40.008 81.2036 39.856 81.2036 39.712C81.2036 39.552 81.2036 39.392 81.2036 39.232C81.2036 38.944 81.2036 38.656 81.2036 38.368C81.2036 38.064 81.2036 37.768 81.2036 37.48ZM89.2848 49.504C88.6768 49.504 88.1568 49.32 87.7248 48.952C87.3088 48.6 87.1008 48.128 87.1008 47.536C87.1008 47.104 87.2368 46.72 87.5088 46.384C87.7968 46.064 88.1648 45.896 88.6128 45.88C88.9648 45.864 89.2608 45.976 89.5008 46.216C89.7568 46.472 89.8848 46.816 89.8848 47.248C89.8848 47.296 89.8848 47.344 89.8848 47.392C89.8848 47.44 89.8768 47.496 89.8608 47.56C89.8928 47.56 89.9328 47.552 89.9808 47.536C90.1248 47.488 90.2768 47.352 90.4368 47.128C90.6128 46.92 90.7808 46.64 90.9408 46.288C91.1168 45.92 91.2848 45.504 91.4448 45.04C91.6208 44.592 91.7728 44.12 91.9008 43.624L88.1088 36.016C87.6608 35.12 87.3648 34.448 87.2208 34C87.0928 33.536 87.0048 33.128 86.9568 32.776L85.8528 32.824V31H91.8288V32.536C91.2368 32.6 90.9088 32.824 90.8448 33.208C90.7968 33.592 90.8688 33.992 91.0608 34.408L93.4128 39.784C93.5728 39.368 93.7808 38.728 94.0368 37.864C94.2928 36.984 94.5968 36.032 94.9488 35.008C95.0128 34.8 95.0928 34.56 95.1888 34.288C95.3008 34 95.4208 33.72 95.5488 33.448C95.6768 33.16 95.8128 32.928 95.9568 32.752L94.5888 32.824V31H98.8608V32.536C98.3648 32.648 97.9488 32.952 97.6128 33.448C97.2928 33.944 97.0048 34.552 96.7488 35.272L93.7488 43.84C93.3008 45.136 92.8768 46.2 92.4768 47.032C92.0768 47.88 91.6288 48.504 91.1328 48.904C90.6368 49.304 90.0208 49.504 89.2848 49.504ZM105.096 43.384C104.408 43.384 103.736 43.296 103.08 43.12C102.424 42.944 101.912 42.72 101.544 42.448L101.592 43.168H99.7676L99.6716 39.04H101.232C101.28 39.52 101.472 39.96 101.808 40.36C102.144 40.76 102.584 41.08 103.128 41.32C103.672 41.544 104.28 41.656 104.952 41.656C105.224 41.656 105.48 41.616 105.72 41.536C105.976 41.456 106.184 41.328 106.344 41.152C106.52 40.96 106.608 40.728 106.608 40.456C106.608 40.152 106.496 39.904 106.272 39.712C106.064 39.52 105.752 39.336 105.336 39.16C104.936 38.984 104.432 38.784 103.824 38.56C103.328 38.368 102.824 38.168 102.312 37.96C101.816 37.752 101.352 37.504 100.92 37.216C100.504 36.912 100.168 36.544 99.9116 36.112C99.6556 35.664 99.5276 35.12 99.5276 34.48C99.5276 34.016 99.6156 33.56 99.7916 33.112C99.9676 32.648 100.24 32.232 100.608 31.864C100.976 31.48 101.44 31.176 102 30.952C102.576 30.728 103.256 30.616 104.04 30.616C104.472 30.616 104.96 30.688 105.504 30.832C106.064 30.96 106.536 31.16 106.92 31.432V30.736H108.744V34.984H107.184C107.088 34.424 106.888 33.944 106.584 33.544C106.296 33.144 105.92 32.84 105.456 32.632C104.992 32.408 104.472 32.296 103.896 32.296C103.496 32.296 103.128 32.392 102.792 32.584C102.472 32.776 102.312 33.104 102.312 33.568C102.312 33.936 102.44 34.232 102.696 34.456C102.952 34.664 103.304 34.84 103.752 34.984C104.2 35.128 104.696 35.296 105.24 35.488C106.056 35.76 106.776 36.08 107.4 36.448C108.04 36.816 108.544 37.264 108.912 37.792C109.28 38.304 109.464 38.936 109.464 39.688C109.464 40.52 109.256 41.208 108.84 41.752C108.424 42.296 107.88 42.704 107.208 42.976C106.552 43.248 105.848 43.384 105.096 43.384Z"/>
	<style>
    path { fill: #FFF; }
  </style>
</svg>
