<svg xmlns="http://www.w3.org/2000/svg" fill="none" viewBox="0 0 128 50">
	<path d="M0.2 19V17.416C0.568 17.4 0.872 17.352 1.112 17.272C1.368 17.192 1.56 17.008 1.688 16.72C1.832 16.432 1.904 15.968 1.904 15.328V6.136C1.904 5.704 1.912 5.288 1.928 4.888C1.96 4.488 1.984 4.184 2 3.976C1.744 3.992 1.424 4.008 1.04 4.024C0.656 4.024 0.376 4.032 0.2 4.048V2.2H7.088V3.784C6.736 3.8 6.432 3.848 6.176 3.928C5.92 4.008 5.72 4.192 5.576 4.48C5.448 4.752 5.384 5.216 5.384 5.872V15.064C5.384 15.496 5.376 15.904 5.36 16.288C5.344 16.672 5.32 16.968 5.288 17.176H8.504C9.448 17.16 10.184 16.832 10.712 16.192C11.256 15.536 11.528 14.552 11.528 13.24H13.136L12.992 19H0.2ZM13.7244 17.44C14.1724 17.44 14.4924 17.352 14.6844 17.176C14.8924 17 15.0204 16.752 15.0684 16.432C15.1164 16.096 15.1404 15.72 15.1404 15.304V5.44C15.1404 5.152 15.1484 4.824 15.1644 4.456C15.1804 4.072 15.2044 3.704 15.2364 3.352C14.9804 3.368 14.6764 3.384 14.3244 3.4C13.9884 3.4 13.7324 3.408 13.5564 3.424V1.6C14.3084 1.6 14.9324 1.56 15.4284 1.48C15.9404 1.4 16.3404 1.304 16.6284 1.192C16.9324 1.08 17.1404 0.975999 17.2524 0.879999H18.5484V15.136C18.5484 15.36 18.5404 15.68 18.5244 16.096C18.5084 16.496 18.4844 16.88 18.4524 17.248C18.7244 17.216 19.0124 17.2 19.3164 17.2C19.6204 17.184 19.8524 17.176 20.0124 17.176V19H13.7244V17.44ZM27.8969 19C27.8649 18.776 27.8409 18.592 27.8249 18.448C27.8249 18.288 27.8169 18.104 27.8009 17.896C27.2569 18.44 26.6809 18.824 26.0729 19.048C25.4649 19.272 24.8489 19.384 24.2249 19.384C23.2009 19.384 22.4009 19.08 21.8249 18.472C21.2489 17.864 20.9609 17.104 20.9609 16.192C20.9609 15.424 21.1529 14.768 21.5369 14.224C21.9369 13.68 22.4569 13.24 23.0969 12.904C23.7529 12.552 24.4729 12.288 25.2569 12.112C26.0569 11.92 26.8569 11.808 27.6569 11.776V10.528C27.6569 10.112 27.6009 9.736 27.4889 9.4C27.3929 9.064 27.2169 8.8 26.9609 8.608C26.7209 8.416 26.3769 8.328 25.9289 8.344C25.6249 8.36 25.3289 8.424 25.0409 8.536C24.7529 8.648 24.5049 8.808 24.2969 9.016C24.4249 9.16 24.5049 9.32 24.5369 9.496C24.5689 9.656 24.5849 9.8 24.5849 9.928C24.5849 10.248 24.4569 10.584 24.2009 10.936C23.9449 11.272 23.5369 11.432 22.9769 11.416C22.4969 11.4 22.1289 11.232 21.8729 10.912C21.6169 10.592 21.4889 10.216 21.4889 9.784C21.4889 9.144 21.7129 8.592 22.1609 8.128C22.6249 7.648 23.2409 7.28 24.0089 7.024C24.7769 6.752 25.6249 6.616 26.5529 6.616C27.9609 6.616 29.0489 6.984 29.8169 7.72C30.6009 8.44 30.9929 9.6 30.9929 11.2C30.9929 11.744 30.9929 12.208 30.9929 12.592C30.9929 12.976 30.9849 13.36 30.9689 13.744C30.9689 14.128 30.9689 14.592 30.9689 15.136C30.9689 15.36 30.9609 15.68 30.9449 16.096C30.9289 16.496 30.9049 16.88 30.8729 17.248C31.1449 17.216 31.4329 17.2 31.7369 17.2C32.0409 17.184 32.2729 17.176 32.4329 17.176V19H27.8969ZM27.6329 13.48C27.1849 13.528 26.7609 13.608 26.3609 13.72C25.9609 13.832 25.6089 13.984 25.3049 14.176C25.0169 14.368 24.7849 14.6 24.6089 14.872C24.4489 15.144 24.3689 15.448 24.3689 15.784C24.3849 16.232 24.5289 16.552 24.8009 16.744C25.0729 16.936 25.3849 17.032 25.7369 17.032C26.1049 17.032 26.4489 16.952 26.7689 16.792C27.0889 16.632 27.3769 16.424 27.6329 16.168C27.6329 16.008 27.6329 15.856 27.6329 15.712C27.6329 15.552 27.6329 15.392 27.6329 15.232C27.6329 14.944 27.6329 14.656 27.6329 14.368C27.6329 14.064 27.6329 13.768 27.6329 13.48ZM33.4509 19V17.44C33.8989 17.44 34.2189 17.352 34.4109 17.176C34.6029 17 34.7229 16.752 34.7709 16.432C34.8349 16.096 34.8669 15.72 34.8669 15.304V11.272C34.8669 10.984 34.8749 10.664 34.8909 10.312C34.9069 9.944 34.9309 9.584 34.9629 9.232C34.7069 9.248 34.4029 9.264 34.0509 9.28C33.7149 9.28 33.4589 9.288 33.2829 9.304V7.48C34.0189 7.48 34.6429 7.44 35.1549 7.36C35.6669 7.28 36.0669 7.184 36.3549 7.072C36.6589 6.96 36.8669 6.856 36.9789 6.76H38.1549C38.1869 6.968 38.2029 7.12 38.2029 7.216C38.2029 7.312 38.2029 7.408 38.2029 7.504C38.2189 7.584 38.2509 7.736 38.2989 7.96C38.6189 7.704 38.9869 7.48 39.4029 7.288C39.8189 7.08 40.2349 6.92 40.6509 6.808C41.0669 6.68 41.4349 6.616 41.7549 6.616C43.2269 6.616 44.2669 7.04 44.8749 7.888C45.4989 8.72 45.8109 10.064 45.8109 11.92V15.136C45.8109 15.36 45.8029 15.68 45.7869 16.096C45.7709 16.496 45.7469 16.88 45.7149 17.248C45.9869 17.216 46.2749 17.2 46.5789 17.2C46.8829 17.184 47.1149 17.176 47.2749 17.176V19H40.9869V17.44C41.4349 17.44 41.7549 17.352 41.9469 17.176C42.1549 17 42.2829 16.752 42.3309 16.432C42.3949 16.096 42.4269 15.72 42.4269 15.304L42.4029 11.896C42.4029 10.856 42.2509 10.088 41.9469 9.592C41.6589 9.08 41.1629 8.824 40.4589 8.824C40.0589 8.824 39.6589 8.912 39.2589 9.088C38.8749 9.264 38.5469 9.472 38.2749 9.712C38.2749 9.936 38.2749 10.168 38.2749 10.408C38.2749 10.632 38.2749 10.856 38.2749 11.08V15.136C38.2749 15.36 38.2669 15.68 38.2509 16.096C38.2349 16.496 38.2109 16.88 38.1789 17.248C38.4349 17.216 38.7149 17.2 39.0189 17.2C39.3389 17.184 39.5789 17.176 39.7389 17.176V19H33.4509ZM48.8767 5.44C48.8767 5.152 48.8767 4.824 48.8767 4.456C48.8927 4.072 48.9167 3.704 48.9487 3.352C48.6927 3.368 48.3887 3.384 48.0367 3.4C47.7007 3.4 47.4447 3.408 47.2687 3.424V1.6C48.0207 1.6 48.6447 1.56 49.1407 1.48C49.6527 1.4 50.0527 1.304 50.3407 1.192C50.6447 1.08 50.8527 0.975999 50.9647 0.879999H52.2607V7.912C52.8047 7.432 53.3567 7.096 53.9167 6.904C54.4767 6.712 55.0047 6.616 55.5007 6.616C56.4607 6.616 57.3007 6.864 58.0207 7.36C58.7567 7.856 59.3247 8.56 59.7247 9.472C60.1407 10.384 60.3487 11.456 60.3487 12.688C60.3487 13.968 60.1087 15.12 59.6287 16.144C59.1647 17.152 58.5007 17.944 57.6367 18.52C56.7727 19.096 55.7327 19.384 54.5167 19.384C54.0847 19.384 53.5327 19.288 52.8607 19.096C52.2047 18.92 51.5967 18.536 51.0367 17.944L50.3167 19H48.8767V5.44ZM52.2607 15.4C52.2607 15.944 52.3487 16.376 52.5247 16.696C52.7007 17.016 52.9247 17.248 53.1967 17.392C53.4687 17.536 53.7407 17.616 54.0127 17.632C54.7327 17.648 55.2927 17.44 55.6927 17.008C56.1087 16.576 56.3967 16.008 56.5567 15.304C56.7327 14.584 56.8207 13.832 56.8207 13.048C56.8207 12.312 56.7327 11.616 56.5567 10.96C56.3807 10.304 56.1007 9.776 55.7167 9.376C55.3327 8.96 54.8287 8.76 54.2047 8.776C53.8047 8.792 53.4367 8.896 53.1007 9.088C52.7647 9.264 52.4847 9.504 52.2607 9.808V15.4ZM67.4345 19.384C66.2665 19.384 65.2345 19.128 64.3385 18.616C63.4425 18.088 62.7465 17.352 62.2505 16.408C61.7545 15.448 61.5065 14.32 61.5065 13.024C61.5065 11.904 61.7545 10.856 62.2505 9.88C62.7465 8.904 63.4425 8.12 64.3385 7.528C65.2505 6.92 66.3065 6.616 67.5065 6.616C68.1785 6.616 68.8345 6.712 69.4745 6.904C70.1145 7.08 70.6905 7.392 71.2025 7.84C71.7305 8.288 72.1465 8.896 72.4505 9.664C72.7705 10.432 72.9225 11.392 72.9065 12.544L65.0345 12.688C65.0345 13.552 65.1385 14.328 65.3465 15.016C65.5705 15.704 65.9305 16.248 66.4265 16.648C66.9225 17.048 67.5865 17.248 68.4185 17.248C68.7385 17.248 69.0985 17.192 69.4985 17.08C69.9145 16.968 70.3305 16.784 70.7465 16.528C71.1785 16.256 71.5785 15.896 71.9465 15.448L73.0265 16.456C72.4505 17.272 71.8345 17.896 71.1785 18.328C70.5225 18.744 69.8665 19.024 69.2105 19.168C68.5705 19.312 67.9785 19.384 67.4345 19.384ZM65.1785 11.008H69.5945C69.5785 10.336 69.4825 9.808 69.3065 9.424C69.1465 9.024 68.9225 8.736 68.6345 8.56C68.3465 8.384 68.0105 8.296 67.6265 8.296C66.9225 8.296 66.3705 8.552 65.9705 9.064C65.5705 9.56 65.3065 10.208 65.1785 11.008ZM78.9326 19.384C77.9726 19.384 77.1246 19.136 76.3886 18.64C75.6686 18.144 75.1006 17.44 74.6846 16.528C74.2846 15.616 74.0846 14.544 74.0846 13.312C74.0846 12.016 74.3326 10.864 74.8286 9.856C75.3246 8.848 76.0206 8.056 76.9166 7.48C77.8126 6.904 78.8526 6.616 80.0366 6.616C80.4686 6.616 80.8526 6.664 81.1886 6.76C81.5406 6.84 81.8686 6.936 82.1726 7.048V5.464C82.1726 5.24 82.1806 4.92 82.1966 4.504C82.2126 4.088 82.2366 3.704 82.2686 3.352C82.0126 3.368 81.7086 3.384 81.3566 3.4C81.0046 3.416 80.7406 3.424 80.5646 3.424V1.6C81.3166 1.6 81.9406 1.56 82.4366 1.48C82.9486 1.4 83.3486 1.304 83.6366 1.192C83.9406 1.08 84.1486 0.975999 84.2606 0.879999H85.5566V15.136C85.5566 15.36 85.5486 15.68 85.5326 16.096C85.5166 16.496 85.4926 16.88 85.4606 17.248C85.7326 17.216 86.0206 17.2 86.3246 17.2C86.6286 17.184 86.8606 17.176 87.0206 17.176V19H82.4606C82.4446 18.824 82.4206 18.64 82.3886 18.448C82.3726 18.256 82.3486 18.072 82.3166 17.896C81.7886 18.44 81.2446 18.824 80.6846 19.048C80.1246 19.272 79.5406 19.384 78.9326 19.384ZM80.1806 17.2C80.5966 17.2 80.9806 17.096 81.3326 16.888C81.6846 16.664 81.9646 16.384 82.1726 16.048C82.1726 15.808 82.1726 15.568 82.1726 15.328C82.1726 15.088 82.1726 14.848 82.1726 14.608V8.848C82.0126 8.72 81.7726 8.616 81.4526 8.536C81.1326 8.44 80.8046 8.392 80.4686 8.392C79.7326 8.408 79.1566 8.64 78.7406 9.088C78.3246 9.536 78.0286 10.104 77.8526 10.792C77.6926 11.48 77.6126 12.2 77.6126 12.952C77.6126 13.624 77.6926 14.288 77.8526 14.944C78.0286 15.6 78.3006 16.144 78.6686 16.576C79.0526 16.992 79.5566 17.2 80.1806 17.2ZM88.2374 17.44C88.6854 17.44 89.0054 17.352 89.1974 17.176C89.3894 17 89.5094 16.752 89.5574 16.432C89.6214 16.096 89.6534 15.72 89.6534 15.304V11.272C89.6534 10.984 89.6614 10.664 89.6774 10.312C89.6934 9.944 89.7174 9.584 89.7494 9.232C89.4934 9.248 89.1894 9.264 88.8374 9.28C88.5014 9.28 88.2454 9.288 88.0694 9.304V7.48H89.0294C89.6534 7.48 90.2214 7.4 90.7334 7.24C91.2614 7.08 91.6054 6.92 91.7654 6.76H92.9414C92.9734 6.92 92.9974 7.224 93.0134 7.672C93.0294 8.104 93.0374 8.488 93.0374 8.824C93.4694 8.296 93.8774 7.872 94.2614 7.552C94.6454 7.232 95.0214 7 95.3894 6.856C95.7734 6.696 96.1574 6.616 96.5414 6.616C97.1014 6.616 97.5894 6.776 98.0054 7.096C98.4214 7.4 98.6294 7.904 98.6294 8.608C98.6294 8.848 98.5734 9.104 98.4614 9.376C98.3494 9.632 98.1734 9.848 97.9334 10.024C97.6934 10.2 97.3654 10.288 96.9494 10.288C96.6294 10.288 96.3014 10.192 95.9654 10C95.6294 9.808 95.4374 9.44 95.3894 8.896C95.0694 8.896 94.7494 9.032 94.4294 9.304C94.1094 9.56 93.8214 9.872 93.5654 10.24C93.3254 10.592 93.1574 10.92 93.0614 11.224V15.136C93.0614 15.36 93.0534 15.68 93.0374 16.096C93.0214 16.496 92.9974 16.88 92.9654 17.248C93.2214 17.216 93.5014 17.2 93.8054 17.2C94.1254 17.184 94.3654 17.176 94.5254 17.176V19H88.2374V17.44ZM105.101 19.384C103.949 19.384 102.909 19.136 101.981 18.64C101.053 18.144 100.317 17.44 99.7732 16.528C99.2452 15.6 98.9812 14.512 98.9812 13.264C98.9812 11.936 99.2532 10.776 99.7972 9.784C100.357 8.776 101.093 8 102.005 7.456C102.933 6.896 103.941 6.616 105.029 6.616C106.181 6.616 107.213 6.864 108.125 7.36C109.037 7.856 109.757 8.568 110.285 9.496C110.813 10.408 111.077 11.504 111.077 12.784C111.077 14.128 110.821 15.296 110.309 16.288C109.797 17.28 109.093 18.048 108.197 18.592C107.301 19.12 106.269 19.384 105.101 19.384ZM105.197 17.68C105.837 17.664 106.317 17.44 106.637 17.008C106.973 16.576 107.205 16.032 107.333 15.376C107.461 14.72 107.525 14.056 107.525 13.384C107.525 12.792 107.477 12.192 107.381 11.584C107.301 10.976 107.165 10.424 106.973 9.928C106.781 9.432 106.517 9.032 106.181 8.728C105.861 8.424 105.461 8.28 104.981 8.296C104.357 8.312 103.861 8.536 103.493 8.968C103.141 9.4 102.885 9.944 102.725 10.6C102.581 11.24 102.509 11.912 102.509 12.616C102.509 13.432 102.597 14.232 102.773 15.016C102.949 15.8 103.229 16.448 103.613 16.96C104.013 17.456 104.541 17.696 105.197 17.68ZM117.615 25.504C116.239 25.504 115.151 25.352 114.351 25.048C113.551 24.76 112.983 24.376 112.647 23.896C112.311 23.416 112.143 22.904 112.143 22.36C112.143 22.024 112.215 21.688 112.359 21.352C112.503 21.016 112.735 20.688 113.055 20.368C113.391 20.064 113.847 19.808 114.423 19.6C113.767 19.424 113.303 19.144 113.031 18.76C112.775 18.36 112.647 17.936 112.647 17.488C112.647 17.072 112.815 16.608 113.151 16.096C113.487 15.568 114.095 15.168 114.975 14.896C114.303 14.624 113.751 14.2 113.319 13.624C112.887 13.048 112.655 12.352 112.623 11.536C112.591 10.576 112.831 9.728 113.343 8.992C113.855 8.24 114.527 7.656 115.359 7.24C116.191 6.824 117.063 6.616 117.975 6.616C118.391 6.616 118.871 6.672 119.415 6.784C119.959 6.896 120.431 7.088 120.831 7.36C121.007 6.864 121.231 6.4 121.503 5.968C121.791 5.52 122.135 5.16 122.535 4.888C122.935 4.6 123.383 4.456 123.879 4.456C124.423 4.456 124.831 4.6 125.103 4.888C125.391 5.16 125.535 5.528 125.535 5.992C125.535 6.184 125.487 6.4 125.391 6.64C125.311 6.864 125.159 7.056 124.935 7.216C124.727 7.376 124.431 7.456 124.047 7.456C123.807 7.456 123.567 7.368 123.327 7.192C123.087 7 122.943 6.776 122.895 6.52C122.687 6.584 122.479 6.792 122.271 7.144C122.063 7.496 121.943 7.808 121.911 8.08C122.375 8.48 122.727 8.944 122.967 9.472C123.207 10 123.327 10.568 123.327 11.176C123.327 12.104 123.063 12.928 122.535 13.648C122.023 14.352 121.351 14.912 120.519 15.328C119.703 15.728 118.823 15.928 117.879 15.928C117.671 15.928 117.439 15.92 117.183 15.904C116.927 15.872 116.679 15.856 116.439 15.856C116.087 15.856 115.791 15.92 115.551 16.048C115.311 16.176 115.191 16.352 115.191 16.576C115.191 16.88 115.423 17.088 115.887 17.2C116.351 17.312 117.143 17.4 118.263 17.464C119.495 17.528 120.567 17.688 121.479 17.944C122.407 18.184 123.127 18.568 123.639 19.096C124.151 19.624 124.407 20.352 124.407 21.28C124.407 21.968 124.207 22.568 123.807 23.08C123.407 23.608 122.871 24.048 122.199 24.4C121.543 24.768 120.815 25.04 120.015 25.216C119.215 25.408 118.415 25.504 117.615 25.504ZM118.311 23.848C119.447 23.848 120.303 23.64 120.879 23.224C121.471 22.808 121.767 22.376 121.767 21.928C121.767 21.592 121.639 21.312 121.383 21.088C121.127 20.88 120.743 20.712 120.231 20.584C119.735 20.456 119.095 20.376 118.311 20.344C117.959 20.312 117.551 20.288 117.087 20.272C116.623 20.256 116.215 20.216 115.863 20.152C115.623 20.344 115.439 20.584 115.311 20.872C115.183 21.16 115.111 21.44 115.095 21.712C115.063 22.352 115.335 22.864 115.911 23.248C116.503 23.648 117.303 23.848 118.311 23.848ZM117.975 14.32C118.407 14.32 118.767 14.184 119.055 13.912C119.359 13.64 119.583 13.296 119.727 12.88C119.887 12.464 119.967 12.04 119.967 11.608C119.967 11.048 119.895 10.512 119.751 10C119.607 9.472 119.383 9.048 119.079 8.728C118.791 8.392 118.415 8.224 117.951 8.224C117.311 8.224 116.815 8.512 116.463 9.088C116.111 9.664 115.935 10.32 115.935 11.056C115.935 11.616 116.015 12.152 116.175 12.664C116.335 13.16 116.567 13.56 116.871 13.864C117.175 14.168 117.543 14.32 117.975 14.32ZM0.2 43V41.416C0.568 41.4 0.872 41.352 1.112 41.272C1.368 41.192 1.56 41.008 1.688 40.72C1.832 40.432 1.904 39.968 1.904 39.328V30.136C1.904 29.704 1.912 29.288 1.928 28.888C1.96 28.488 1.984 28.184 2 27.976C1.744 27.992 1.424 28.008 1.04 28.024C0.656 28.024 0.376 28.032 0.2 28.048V26.2H7.088V27.784C6.736 27.8 6.432 27.848 6.176 27.928C5.92 28.008 5.72 28.192 5.576 28.48C5.448 28.752 5.384 29.216 5.384 29.872V33.616H11.984V30.136C11.984 29.704 11.992 29.288 12.008 28.888C12.024 28.488 12.048 28.184 12.08 27.976C11.824 27.992 11.504 28.008 11.12 28.024C10.736 28.024 10.456 28.032 10.28 28.048V26.2H17.168V27.784C16.816 27.8 16.512 27.848 16.256 27.928C16 28.008 15.8 28.192 15.656 28.48C15.528 28.752 15.464 29.216 15.464 29.872V39.064C15.464 39.496 15.456 39.912 15.44 40.312C15.424 40.712 15.4 41.016 15.368 41.224C15.624 41.192 15.944 41.176 16.328 41.176C16.728 41.16 17.008 41.152 17.168 41.152V43H10.28V41.416C10.648 41.4 10.952 41.352 11.192 41.272C11.448 41.192 11.64 41.008 11.768 40.72C11.912 40.432 11.984 39.968 11.984 39.328V35.44L5.384 35.512V39.064C5.384 39.496 5.376 39.912 5.36 40.312C5.344 40.712 5.32 41.016 5.288 41.224C5.544 41.192 5.864 41.176 6.248 41.176C6.648 41.16 6.928 41.152 7.088 41.152V43H0.2ZM24.2306 43.384C23.0786 43.384 22.0386 43.136 21.1106 42.64C20.1826 42.144 19.4466 41.44 18.9026 40.528C18.3746 39.6 18.1106 38.512 18.1106 37.264C18.1106 35.936 18.3826 34.776 18.9266 33.784C19.4866 32.776 20.2226 32 21.1346 31.456C22.0626 30.896 23.0706 30.616 24.1586 30.616C25.3106 30.616 26.3426 30.864 27.2546 31.36C28.1666 31.856 28.8866 32.568 29.4146 33.496C29.9426 34.408 30.2066 35.504 30.2066 36.784C30.2066 38.128 29.9506 39.296 29.4386 40.288C28.9266 41.28 28.2226 42.048 27.3266 42.592C26.4306 43.12 25.3986 43.384 24.2306 43.384ZM24.3266 41.68C24.9666 41.664 25.4466 41.44 25.7666 41.008C26.1026 40.576 26.3346 40.032 26.4626 39.376C26.5906 38.72 26.6546 38.056 26.6546 37.384C26.6546 36.792 26.6066 36.192 26.5106 35.584C26.4306 34.976 26.2946 34.424 26.1026 33.928C25.9106 33.432 25.6466 33.032 25.3106 32.728C24.9906 32.424 24.5906 32.28 24.1106 32.296C23.4866 32.312 22.9906 32.536 22.6226 32.968C22.2706 33.4 22.0146 33.944 21.8546 34.6C21.7106 35.24 21.6386 35.912 21.6386 36.616C21.6386 37.432 21.7266 38.232 21.9026 39.016C22.0786 39.8 22.3586 40.448 22.7426 40.96C23.1426 41.456 23.6706 41.696 24.3266 41.68ZM31.1066 41.44C31.5546 41.44 31.8746 41.352 32.0666 41.176C32.2746 41 32.4026 40.752 32.4506 40.432C32.4986 40.096 32.5226 39.72 32.5226 39.304V29.44C32.5226 29.152 32.5306 28.824 32.5466 28.456C32.5626 28.072 32.5866 27.704 32.6186 27.352C32.3626 27.368 32.0586 27.384 31.7066 27.4C31.3706 27.4 31.1146 27.408 30.9386 27.424V25.6C31.6906 25.6 32.3146 25.56 32.8106 25.48C33.3226 25.4 33.7226 25.304 34.0106 25.192C34.3146 25.08 34.5226 24.976 34.6346 24.88H35.9306V39.136C35.9306 39.36 35.9226 39.68 35.9066 40.096C35.8906 40.496 35.8666 40.88 35.8346 41.248C36.1066 41.216 36.3946 41.2 36.6986 41.2C37.0026 41.184 37.2346 41.176 37.3946 41.176V43H31.1066V41.44ZM38.6071 41.44C39.0551 41.44 39.3751 41.352 39.5671 41.176C39.7591 41 39.8791 40.752 39.9271 40.432C39.9911 40.096 40.0231 39.72 40.0231 39.304V35.32C40.0231 35.032 40.0311 34.704 40.0471 34.336C40.0631 33.952 40.0871 33.584 40.1191 33.232C39.8631 33.248 39.5591 33.264 39.2071 33.28C38.8711 33.28 38.6151 33.288 38.4391 33.304V31.48C39.1751 31.48 39.7991 31.44 40.3111 31.36C40.8231 31.28 41.2231 31.184 41.5111 31.072C41.8151 30.96 42.0231 30.856 42.1351 30.76H43.4311V39.136C43.4311 39.36 43.4231 39.68 43.4071 40.096C43.3911 40.496 43.3671 40.88 43.3351 41.248C43.5911 41.216 43.8711 41.2 44.1751 41.2C44.4951 41.184 44.7351 41.176 44.8951 41.176V43H38.6071V41.44ZM41.6071 28.864C41.0631 28.864 40.6151 28.672 40.2631 28.288C39.9111 27.904 39.7351 27.44 39.7351 26.896C39.7351 26.352 39.9191 25.888 40.2871 25.504C40.6551 25.12 41.0871 24.928 41.5831 24.928C42.0951 24.928 42.5191 25.12 42.8551 25.504C43.2071 25.888 43.3831 26.352 43.3831 26.896C43.3831 27.44 43.2231 27.904 42.9031 28.288C42.5831 28.672 42.1511 28.864 41.6071 28.864ZM50.7307 43.384C49.7707 43.384 48.9227 43.136 48.1867 42.64C47.4667 42.144 46.8987 41.44 46.4827 40.528C46.0827 39.616 45.8827 38.544 45.8827 37.312C45.8827 36.016 46.1307 34.864 46.6267 33.856C47.1227 32.848 47.8187 32.056 48.7147 31.48C49.6107 30.904 50.6507 30.616 51.8347 30.616C52.2667 30.616 52.6507 30.664 52.9867 30.76C53.3387 30.84 53.6667 30.936 53.9707 31.048V29.464C53.9707 29.24 53.9787 28.92 53.9947 28.504C54.0107 28.088 54.0347 27.704 54.0667 27.352C53.8107 27.368 53.5067 27.384 53.1547 27.4C52.8027 27.416 52.5387 27.424 52.3627 27.424V25.6C53.1147 25.6 53.7387 25.56 54.2347 25.48C54.7467 25.4 55.1467 25.304 55.4347 25.192C55.7387 25.08 55.9467 24.976 56.0587 24.88H57.3547V39.136C57.3547 39.36 57.3467 39.68 57.3307 40.096C57.3147 40.496 57.2907 40.88 57.2587 41.248C57.5307 41.216 57.8187 41.2 58.1227 41.2C58.4267 41.184 58.6587 41.176 58.8187 41.176V43H54.2587C54.2427 42.824 54.2187 42.64 54.1867 42.448C54.1707 42.256 54.1467 42.072 54.1147 41.896C53.5867 42.44 53.0427 42.824 52.4827 43.048C51.9227 43.272 51.3387 43.384 50.7307 43.384ZM51.9787 41.2C52.3947 41.2 52.7787 41.096 53.1307 40.888C53.4827 40.664 53.7627 40.384 53.9707 40.048C53.9707 39.808 53.9707 39.568 53.9707 39.328C53.9707 39.088 53.9707 38.848 53.9707 38.608V32.848C53.8107 32.72 53.5707 32.616 53.2507 32.536C52.9307 32.44 52.6027 32.392 52.2667 32.392C51.5307 32.408 50.9547 32.64 50.5387 33.088C50.1227 33.536 49.8267 34.104 49.6507 34.792C49.4907 35.48 49.4107 36.2 49.4107 36.952C49.4107 37.624 49.4907 38.288 49.6507 38.944C49.8267 39.6 50.0987 40.144 50.4667 40.576C50.8507 40.992 51.3547 41.2 51.9787 41.2ZM66.7076 43C66.6756 42.776 66.6516 42.592 66.6356 42.448C66.6356 42.288 66.6276 42.104 66.6116 41.896C66.0676 42.44 65.4916 42.824 64.8836 43.048C64.2756 43.272 63.6596 43.384 63.0356 43.384C62.0116 43.384 61.2116 43.08 60.6356 42.472C60.0596 41.864 59.7716 41.104 59.7716 40.192C59.7716 39.424 59.9636 38.768 60.3476 38.224C60.7476 37.68 61.2676 37.24 61.9076 36.904C62.5636 36.552 63.2836 36.288 64.0676 36.112C64.8676 35.92 65.6676 35.808 66.4676 35.776V34.528C66.4676 34.112 66.4116 33.736 66.2996 33.4C66.2036 33.064 66.0276 32.8 65.7716 32.608C65.5316 32.416 65.1876 32.328 64.7396 32.344C64.4356 32.36 64.1396 32.424 63.8516 32.536C63.5636 32.648 63.3156 32.808 63.1076 33.016C63.2356 33.16 63.3156 33.32 63.3476 33.496C63.3796 33.656 63.3956 33.8 63.3956 33.928C63.3956 34.248 63.2676 34.584 63.0116 34.936C62.7556 35.272 62.3476 35.432 61.7876 35.416C61.3076 35.4 60.9396 35.232 60.6836 34.912C60.4276 34.592 60.2996 34.216 60.2996 33.784C60.2996 33.144 60.5236 32.592 60.9716 32.128C61.4356 31.648 62.0516 31.28 62.8196 31.024C63.5876 30.752 64.4356 30.616 65.3636 30.616C66.7716 30.616 67.8596 30.984 68.6276 31.72C69.4116 32.44 69.8036 33.6 69.8036 35.2C69.8036 35.744 69.8036 36.208 69.8036 36.592C69.8036 36.976 69.7956 37.36 69.7796 37.744C69.7796 38.128 69.7796 38.592 69.7796 39.136C69.7796 39.36 69.7716 39.68 69.7556 40.096C69.7396 40.496 69.7156 40.88 69.6836 41.248C69.9556 41.216 70.2436 41.2 70.5476 41.2C70.8516 41.184 71.0836 41.176 71.2436 41.176V43H66.7076ZM66.4436 37.48C65.9956 37.528 65.5716 37.608 65.1716 37.72C64.7716 37.832 64.4196 37.984 64.1156 38.176C63.8276 38.368 63.5956 38.6 63.4196 38.872C63.2596 39.144 63.1796 39.448 63.1796 39.784C63.1956 40.232 63.3396 40.552 63.6116 40.744C63.8836 40.936 64.1956 41.032 64.5476 41.032C64.9156 41.032 65.2596 40.952 65.5796 40.792C65.8996 40.632 66.1876 40.424 66.4436 40.168C66.4436 40.008 66.4436 39.856 66.4436 39.712C66.4436 39.552 66.4436 39.392 66.4436 39.232C66.4436 38.944 66.4436 38.656 66.4436 38.368C66.4436 38.064 66.4436 37.768 66.4436 37.48ZM74.5248 49.504C73.9168 49.504 73.3968 49.32 72.9648 48.952C72.5488 48.6 72.3408 48.128 72.3408 47.536C72.3408 47.104 72.4768 46.72 72.7488 46.384C73.0368 46.064 73.4048 45.896 73.8528 45.88C74.2048 45.864 74.5008 45.976 74.7408 46.216C74.9968 46.472 75.1248 46.816 75.1248 47.248C75.1248 47.296 75.1248 47.344 75.1248 47.392C75.1248 47.44 75.1168 47.496 75.1008 47.56C75.1328 47.56 75.1728 47.552 75.2208 47.536C75.3648 47.488 75.5168 47.352 75.6768 47.128C75.8528 46.92 76.0208 46.64 76.1808 46.288C76.3568 45.92 76.5248 45.504 76.6848 45.04C76.8608 44.592 77.0128 44.12 77.1408 43.624L73.3488 36.016C72.9008 35.12 72.6048 34.448 72.4608 34C72.3328 33.536 72.2448 33.128 72.1968 32.776L71.0928 32.824V31H77.0688V32.536C76.4768 32.6 76.1488 32.824 76.0848 33.208C76.0368 33.592 76.1088 33.992 76.3008 34.408L78.6528 39.784C78.8128 39.368 79.0208 38.728 79.2768 37.864C79.5328 36.984 79.8368 36.032 80.1888 35.008C80.2528 34.8 80.3328 34.56 80.4288 34.288C80.5408 34 80.6608 33.72 80.7888 33.448C80.9168 33.16 81.0528 32.928 81.1968 32.752L79.8288 32.824V31H84.1008V32.536C83.6048 32.648 83.1888 32.952 82.8528 33.448C82.5328 33.944 82.2448 34.552 81.9888 35.272L78.9888 43.84C78.5408 45.136 78.1168 46.2 77.7168 47.032C77.3168 47.88 76.8688 48.504 76.3728 48.904C75.8768 49.304 75.2608 49.504 74.5248 49.504ZM90.3356 43.384C89.6476 43.384 88.9756 43.296 88.3196 43.12C87.6636 42.944 87.1516 42.72 86.7836 42.448L86.8316 43.168H85.0076L84.9116 39.04H86.4716C86.5196 39.52 86.7116 39.96 87.0476 40.36C87.3836 40.76 87.8236 41.08 88.3676 41.32C88.9116 41.544 89.5196 41.656 90.1916 41.656C90.4636 41.656 90.7196 41.616 90.9596 41.536C91.2156 41.456 91.4236 41.328 91.5836 41.152C91.7596 40.96 91.8476 40.728 91.8476 40.456C91.8476 40.152 91.7356 39.904 91.5116 39.712C91.3036 39.52 90.9916 39.336 90.5756 39.16C90.1756 38.984 89.6716 38.784 89.0636 38.56C88.5676 38.368 88.0636 38.168 87.5516 37.96C87.0556 37.752 86.5916 37.504 86.1596 37.216C85.7436 36.912 85.4076 36.544 85.1516 36.112C84.8956 35.664 84.7676 35.12 84.7676 34.48C84.7676 34.016 84.8556 33.56 85.0316 33.112C85.2076 32.648 85.4796 32.232 85.8476 31.864C86.2156 31.48 86.6796 31.176 87.2396 30.952C87.8156 30.728 88.4956 30.616 89.2796 30.616C89.7116 30.616 90.1996 30.688 90.7436 30.832C91.3036 30.96 91.7756 31.16 92.1596 31.432V30.736H93.9836V34.984H92.4236C92.3276 34.424 92.1276 33.944 91.8236 33.544C91.5356 33.144 91.1596 32.84 90.6956 32.632C90.2316 32.408 89.7116 32.296 89.1356 32.296C88.7356 32.296 88.3676 32.392 88.0316 32.584C87.7116 32.776 87.5516 33.104 87.5516 33.568C87.5516 33.936 87.6796 34.232 87.9356 34.456C88.1916 34.664 88.5436 34.84 88.9916 34.984C89.4396 35.128 89.9356 35.296 90.4796 35.488C91.2956 35.76 92.0156 36.08 92.6396 36.448C93.2796 36.816 93.7836 37.264 94.1516 37.792C94.5196 38.304 94.7036 38.936 94.7036 39.688C94.7036 40.52 94.4956 41.208 94.0796 41.752C93.6636 42.296 93.1196 42.704 92.4476 42.976C91.7916 43.248 91.0876 43.384 90.3356 43.384Z"/>
	<style>
    path { fill: #FFF; }
  </style>
</svg>